<?xml version="1.0" encoding="utf-8"?>
<!-- Generator: Adobe Illustrator 15.0.0, SVG Export Plug-In  -->
<!DOCTYPE svg PUBLIC "-//W3C//DTD SVG 1.1//EN" "http://www.w3.org/Graphics/SVG/1.1/DTD/svg11.dtd" [
	<!ENTITY ns_flows "http://ns.adobe.com/Flows/1.0/">
]>
<svg version="1.1"
	 xmlns="http://www.w3.org/2000/svg" xmlns:xlink="http://www.w3.org/1999/xlink" xmlns:a="http://ns.adobe.com/AdobeSVGViewerExtensions/3.0/"
	 x="0px" y="0px" width="173px" height="48px" viewBox="0 0 173 48" overflow="visible" enable-background="new 0 0 173 48"
	 xml:space="preserve">
<defs>
</defs>
<polygon fill="#1A171B" points="0,0 0,4.946 2.165,4.946 2.165,21.021 0,21.021 0,26.276 22.567,26.276 22.567,17.621 
	16.077,17.621 16.077,21.021 10.203,21.021 10.203,15.147 17.312,15.147 17.312,10.201 10.203,10.201 10.203,4.946 16.077,4.946 
	16.077,8.348 22.567,8.348 22.567,0 "/>
<path fill="#1A171B" d="M34.625,26.276v-4.945h-2.473v-4.925c0-1.534,0.314-3.319,2.134-3.319c2.106,0,1.885,2.105,1.885,3.319v9.87
	h8.965v-4.945H43.59v-5.818c0-3.747-0.928-7.85-6.459-7.85c-2.249,0-3.891,1.198-5.104,2.875l-0.821-2.191h-7.71v4.637h1.546v8.348
	h-1.546v4.945H34.625z"/>
<path fill="#1A171B" d="M44.826,8.347v4.639h2.164v6.311c0,4.569,0.254,7.495,5.607,7.495c0.821,0,3.049-0.25,4.286-0.678v-4.569
	c-0.618,0.285-1.79,0.607-2.254,0.607c-1.392,0-1.147-1.643-1.147-2.855v-6.311h3.401V8.347h-3.401V2.915L46.99,5.022v3.324H44.826z
	"/>
<path fill="#1A171B" d="M69.559,15.458h-5.359c0.072-0.928,0.572-2.856,2.748-2.856c2.284,0,2.606,1.619,2.641,2.856 M75.334,18.857
	c0.749-1.854,0.357-4.705-0.072-5.954c-1.035-2.997-4.282-5.137-8.529-5.137c-5.388,0-9.6,3.481-9.6,9.333
	c0,6.854,4.997,9.683,9.421,9.683c3.712,0,6.567-0.817,9.208-3.101l-2.998-3.46c-1.927,1.606-3.783,1.639-4.996,1.639
	c-2.998,0-3.462-1.766-3.676-3.003H75.334z"/>
<path fill="#1A171B" d="M86.561,26.276v-4.945h-1.855v-3.533c0-3.14,1.855-4.745,4.947-4.745v-4.74
	c-3.401-0.813-4.184,0.052-5.498,2.296l-1.036-2.262h-6.76v4.638h1.546v8.347h-1.546v4.945H86.561z"/>
<path fill="#1A171B" d="M104.173,17.44c0,2.712-1.034,4.461-2.532,4.461c-1.357,0-2.57-1.854-2.57-4.282
	c-0.143-2.819,1.142-4.567,2.533-4.567C103.174,13.052,104.173,15.3,104.173,17.44 M111.846,17.369c0-5.067-2.854-9.351-8.422-9.351
	c-2.141,0-3.64,1.057-4.318,1.556L98.5,8.348H90.27v4.637h1.547v15.767H90.27v4.638h10.82v-4.638h-2.164v-3.603
	c0.31,0.215,1.75,1.394,4.711,1.394C108.243,26.542,111.846,23.044,111.846,17.369"/>
<path fill="#29990B" d="M127.014,3.421c0,1.611,1.51,3.39,3.623,3.39c2.383,0,3.69-1.543,3.69-3.39c0-1.543-1.376-3.421-3.69-3.421
	C128.29,0,127.014,1.878,127.014,3.421"/>
<polygon fill="#1A171B" points="136.024,26.276 136.024,21.331 134.168,21.331 134.168,8.347 126.131,8.347 126.131,12.983 
	127.368,12.983 127.368,21.331 126.131,21.331 126.131,26.276 "/>
<path fill="#1A171B" d="M136.642,26.276h4.556l0.321-2.24c0.856,1.355,2.892,2.572,5.46,2.572c3.463,0,6.639-2.015,6.639-5.368
	c0-3.747-3.034-4.79-5.746-5.719c-2.284-0.784-4.389-1.218-4.389-2.217c0-0.892,0.642-1.23,1.392-1.23
	c1.784,0,3.639,1.22,3.639,2.765h4.515V8.347h-4.265l-0.285,2.334c-0.75-1.534-2.891-2.794-5.317-2.794
	c-2.533,0-6.281,1.53-6.281,5.169c0,3.355,2.32,4.853,4.747,5.708c2.569,0.893,5.245,1.07,5.245,2.141
	c0,0.999-0.855,1.242-1.569,1.242c-1.071,0-3.783-0.507-3.783-2.36h-4.877V26.276z"/>
<path fill="#1A171B" d="M166.321,15.458h-5.289c0.072-0.928,0.572-2.856,2.748-2.856c2.285,0,2.606,1.619,2.642,2.856
	 M172.167,18.857c0.749-1.854,0.356-4.705-0.072-5.954c-1.035-2.997-4.282-5.137-8.528-5.137c-5.389,0-9.601,3.481-9.601,9.333
	c0,6.854,4.997,9.683,9.422,9.683c3.711,0,6.566-0.817,9.207-3.101l-2.998-3.46c-1.927,1.606-3.782,1.639-4.996,1.639
	c-2.997,0-3.462-1.766-3.676-3.003H172.167z"/>
<path fill="#1A171B" d="M122.113,26.276v-4.945h-1.855v-3.533c0-3.14,1.855-4.852,5.257-4.852V8.312
	c-3.711-0.813-4.261,0.052-5.574,2.296l-1.112-2.262h-6.608v4.638h1.547v8.347h-1.547v4.945H122.113z"/>
<polygon fill="#344152" points="4.319,47.614 3.074,47.614 3.074,38.87 0,38.87 0,37.779 7.373,37.779 7.373,38.87 4.319,38.87 "/>
<polygon fill="#344152" points="16.387,47.614 15.149,47.614 15.149,43.026 10.104,43.026 10.104,47.614 8.866,47.614 8.866,37.779 
	10.104,37.779 10.104,41.937 15.149,41.937 15.149,37.779 16.387,37.779 "/>
<polygon fill="#344152" points="24.574,47.614 19.078,47.614 19.078,37.779 24.574,37.779 24.574,38.87 20.316,38.87 20.316,41.937 
	24.325,41.937 24.325,43.013 20.316,43.013 20.316,46.524 24.574,46.524 "/>
<path fill="#344152" d="M35.896,44.983c0,0.856-0.309,1.531-0.928,2.025s-1.48,0.74-2.584,0.74c-1.166,0-2.067-0.155-2.704-0.464
	v-1.185c0.417,0.18,0.874,0.32,1.369,0.424c0.496,0.104,0.959,0.154,1.389,0.154c0.736,0,1.29-0.141,1.662-0.424
	c0.372-0.282,0.558-0.669,0.558-1.164c0-0.327-0.067-0.595-0.202-0.806c-0.134-0.211-0.359-0.408-0.676-0.592
	c-0.316-0.186-0.795-0.394-1.436-0.627c-0.91-0.331-1.561-0.724-1.951-1.174c-0.39-0.451-0.585-1.032-0.585-1.746
	c0-0.767,0.288-1.376,0.864-1.828c0.577-0.453,1.336-0.681,2.278-0.681c0.982,0,1.885,0.185,2.711,0.552l-0.384,1.063
	c-0.843-0.35-1.628-0.525-2.354-0.525c-0.583,0-1.04,0.125-1.369,0.377c-0.33,0.251-0.495,0.604-0.495,1.057
	c0,0.322,0.064,0.591,0.192,0.803c0.128,0.213,0.334,0.408,0.619,0.582c0.285,0.175,0.732,0.375,1.342,0.599
	c0.731,0.271,1.276,0.53,1.635,0.784c0.358,0.253,0.623,0.545,0.793,0.874C35.811,44.133,35.896,44.527,35.896,44.983"/>
<polygon fill="#344152" points="40.995,47.614 39.75,47.614 39.75,38.87 36.676,38.87 36.676,37.779 44.049,37.779 44.049,38.87 
	40.995,38.87 "/>
<path fill="#344152" d="M51.24,47.615l-1.184-3.048h-3.902l-1.17,3.048h-1.251l3.841-9.876h1.116l3.835,9.876H51.24z M49.686,43.47
	l-1.103-2.979l-0.471-1.474c-0.135,0.538-0.276,1.028-0.424,1.474l-1.117,2.979H49.686z"/>
<polygon fill="#344152" points="56.521,47.614 55.276,47.614 55.276,38.87 52.202,38.87 52.202,37.779 59.575,37.779 59.575,38.87 
	56.521,38.87 "/>
<polygon fill="#344152" points="66.564,47.614 61.068,47.614 61.068,37.779 66.564,37.779 66.564,38.87 62.306,38.87 62.306,41.937 
	66.315,41.937 66.315,43.013 62.306,43.013 62.306,46.524 66.564,46.524 "/>
<path fill="#344152" d="M80.892,42.683c0,1.574-0.397,2.813-1.194,3.715c-0.796,0.9-1.909,1.351-3.34,1.351
	c-1.448,0-2.568-0.442-3.36-1.328c-0.791-0.885-1.187-2.135-1.187-3.751c0-1.6,0.394-2.841,1.181-3.722
	c0.787-0.882,1.913-1.323,3.38-1.323c1.426,0,2.536,0.448,3.33,1.342C80.496,39.862,80.892,41.101,80.892,42.683 M73.116,42.683
	c0,1.302,0.276,2.293,0.827,2.975c0.552,0.681,1.357,1.021,2.415,1.021c1.054,0,1.855-0.336,2.402-1.009s0.821-1.669,0.821-2.987
	c0-1.312-0.272-2.304-0.814-2.97c-0.543-0.666-1.341-0.999-2.395-0.999c-1.068,0-1.877,0.337-2.429,1.014
	C73.392,40.402,73.116,41.387,73.116,42.683"/>
<polygon fill="#344152" points="84.303,47.614 83.065,47.614 83.065,37.779 88.561,37.779 88.561,38.87 84.303,38.87 84.303,42.354 
	88.299,42.354 88.299,43.437 84.303,43.437 "/>
<polygon fill="#344152" points="96.91,47.614 95.665,47.614 95.665,38.87 92.59,38.87 92.59,37.779 99.963,37.779 99.963,38.87 
	96.91,38.87 "/>
<polygon fill="#344152" points="108.978,47.614 107.74,47.614 107.74,43.026 102.695,43.026 102.695,47.614 101.458,47.614 
	101.458,37.779 102.695,37.779 102.695,41.937 107.74,41.937 107.74,37.779 108.978,37.779 "/>
<polygon fill="#344152" points="117.165,47.614 111.668,47.614 111.668,37.779 117.165,37.779 117.165,38.87 112.907,38.87 
	112.907,41.937 116.917,41.937 116.917,43.013 112.907,43.013 112.907,46.524 117.165,46.524 "/>
<path fill="#344152" d="M130.707,47.614h-1.446l-5.268-8.167h-0.053l0.032,0.546c0.054,0.815,0.081,1.523,0.081,2.126v5.495h-1.145
	v-9.835h1.434l0.303,0.479l3.229,4.991l1.715,2.671h0.054c-0.009-0.109-0.027-0.493-0.054-1.155c-0.026-0.661-0.04-1.139-0.04-1.435
	v-5.551h1.157V47.614z"/>
<path fill="#344152" d="M139.545,47.615l-1.184-3.048h-3.902l-1.17,3.048h-1.251l3.841-9.876h1.116l3.835,9.876H139.545z
	 M137.992,43.47l-1.103-2.979l-0.472-1.474c-0.135,0.538-0.276,1.028-0.424,1.474l-1.117,2.979H137.992z"/>
<polygon fill="#344152" points="144.827,47.614 143.581,47.614 143.581,38.87 140.507,38.87 140.507,37.779 147.88,37.779 
	147.88,38.87 144.827,38.87 "/>
<polygon fill="#344152" points="152.139,47.614 148.586,47.614 148.586,46.9 149.744,46.639 149.744,38.768 148.586,38.493 
	148.586,37.779 152.139,37.779 152.139,38.493 150.981,38.768 150.981,46.639 152.139,46.9 "/>
<path fill="#344152" d="M162.625,42.683c0,1.574-0.396,2.813-1.193,3.715c-0.797,0.9-1.91,1.351-3.341,1.351
	c-1.448,0-2.567-0.442-3.36-1.328c-0.791-0.885-1.187-2.135-1.187-3.751c0-1.6,0.394-2.841,1.181-3.722
	c0.787-0.882,1.914-1.323,3.381-1.323c1.426,0,2.535,0.448,3.33,1.342C162.229,39.862,162.625,41.101,162.625,42.683 M154.85,42.683
	c0,1.302,0.275,2.293,0.826,2.975c0.553,0.681,1.357,1.021,2.415,1.021c1.054,0,1.855-0.336,2.402-1.009s0.821-1.669,0.821-2.987
	c0-1.312-0.272-2.304-0.814-2.97c-0.543-0.666-1.341-0.999-2.395-0.999c-1.068,0-1.877,0.337-2.43,1.014
	C155.125,40.402,154.85,41.387,154.85,42.683"/>
<path fill="#344152" d="M172.595,47.614h-1.446l-5.268-8.167h-0.053l0.033,0.546c0.054,0.815,0.08,1.523,0.08,2.126v5.495h-1.144
	v-9.835h1.433l0.304,0.479l3.229,4.991l1.716,2.671h0.053c-0.008-0.109-0.026-0.493-0.053-1.155
	c-0.027-0.661-0.041-1.139-0.041-1.435v-5.551h1.157V47.614z"/>
</svg>
